<mxfile host="app.diagrams.net" modified="2024-04-20T05:58:35.158Z" agent="Mozilla/5.0 (Windows NT 10.0; Win64; x64) AppleWebKit/537.36 (KHTML, like Gecko) Chrome/117.0.0.0 Safari/537.36 Edg/117.0.2045.43" version="24.2.3" etag="xSwb2gY_1Rn9WBSXY2kt" type="github">
  <diagram name="PÃ¡gina-1" id="C_jm1q3ndDfuIuz1euPc">
    <mxGraphModel>
      <root>
        <mxCell id="0" />
        <mxCell id="1" parent="0" />
      </root>
    </mxGraphModel>
  </diagram>
</mxfile>
